<?xml version="1.0" encoding="utf-8"?>
<!-- Generator: Adobe Illustrator 27.4.1, SVG Export Plug-In . SVG Version: 6.00 Build 0)  -->
<svg version="1.1" id="Laag_1" xmlns="http://www.w3.org/2000/svg" xmlns:xlink="http://www.w3.org/1999/xlink" x="0px" y="0px"
	 viewBox="0 0 394.9 360.3" style="enable-background:new 0 0 394.9 360.3;" xml:space="preserve">
<style type="text/css">
	.st0{fill:#D6BC78;}
	.st1{fill:none;stroke:#D6BC78;stroke-width:2;stroke-miterlimit:10;}
</style>
<g>
	<path class="st0" d="M152.9,87.5c0,0,107.6-13.6,115.4,41.2s-33.3,59-33.3,59l33.3,100.8l-21.7,1.2l-29.2-99.9l-13.2,5L190.7,170
		c0,0,59.2-2.8,47.2-38.4s-69.3-17.5-69.3-17.5L152.9,87.5z"/>
	<path class="st0" d="M193.7,153.6c0,0-44.2,23.2-10.6,63.1c33.3,39.4,7.5,72.3-14.3,73s-53-9.4-53-9.4l12.1-17.3
		c0,0,71.6,4.5,25.5-48.1s29.7-86.3,29.7-86.3L193.7,153.6z"/>
</g>
<polyline class="st1" points="19.3,219.2 37,219.2 48.1,186.9 67.6,250.8 81.1,152.1 86.1,231.4 104.7,201.5 120.7,242.4 
	128.8,172.3 151.1,250.8 183.2,138.2 212,232.3 241.4,158.8 271.8,244.1 299.7,153.8 317.4,228.9 337.7,194.5 344.3,219.2 
	366.2,219.2 "/>
</svg>
