<?xml version="1.0" encoding="utf-8"?>
<!-- Generator: Adobe Illustrator 27.5.0, SVG Export Plug-In . SVG Version: 6.00 Build 0)  -->
<svg version="1.1" id="Laag_1" xmlns="http://www.w3.org/2000/svg" xmlns:xlink="http://www.w3.org/1999/xlink" x="0px" y="0px"
	 viewBox="0 0 226.8 226.8" style="enable-background:new 0 0 226.8 226.8;" xml:space="preserve">
<style type="text/css">
	.st0{fill:#FFFFFF;}
	.st1{fill:none;stroke:#FFFFFF;stroke-miterlimit:10;}
	.st2{fill:none;}
	.st3{font-family:'Inlanders-Bold';}
	.st4{font-size:14px;}
</style>
<g>
	<path class="st0" d="M96.5,60.4c0,0,42.1-5.3,45.2,16.1s-13,23.1-13,23.1l13,39.5l-8.5,0.5l-11.4-39.1l-5.2,2l-5.3-9.7
		c0,0,23.2-1.1,18.5-15c-4.7-14-27.2-6.9-27.2-6.9L96.5,60.4z"/>
	<path class="st0" d="M112.5,86.3c0,0-17.3,9.1-4.2,24.7c13,15.4,2.9,28.3-5.6,28.6c-8.5,0.3-20.8-3.7-20.8-3.7l4.7-6.8
		c0,0,28,1.8,10-18.8s11.6-33.8,11.6-33.8L112.5,86.3z"/>
</g>
<polyline class="st1" points="44.1,112 51.1,112 55.4,99.3 63.1,124.4 68.3,85.7 70.3,116.8 77.6,105.1 83.9,121.1 87,93.6 
	95.8,124.4 108.3,80.3 119.6,117.1 131.1,88.3 143.1,121.7 154,86.4 160.9,115.8 168.9,102.3 171.4,112 180,112 "/>
<rect x="66.1" y="152.7" class="st2" width="101.5" height="11.3"/>
<text transform="matrix(1 0 0 1 72.0143 162.269)" class="st0 st3 st4">record studio</text>
</svg>
